<svg viewBox="0 0 200 60" xmlns="http://www.w3.org/2000/svg">
  <defs>
    <linearGradient id="cloudwijk-gradient" x1="0%" y1="0%" x2="100%" y2="0%">
      <stop offset="0%" style="stop-color:#1e3a8a;stop-opacity:1" />
      <stop offset="100%" style="stop-color:#3b82f6;stop-opacity:1" />
    </linearGradient>
  </defs>
  
  <!-- Cloud symbol -->
  <path d="M20 35c-5.5 0-10-4.5-10-10 0-8.3 6.7-15 15-15 6.9 0 12.7 4.7 14.4 11.1 1.9-1.4 4.2-2.1 6.6-2.1 6.6 0 12 5.4 12 12s-5.4 12-12 12H20z" 
        fill="url(#cloudwijk-gradient)" 
        stroke="none"/>
  
  <!-- Tower/antenna symbol -->
  <rect x="32" y="15" width="2" height="20" fill="url(#cloudwijk-gradient)"/>
  <rect x="28" y="22" width="10" height="1.5" fill="url(#cloudwijk-gradient)"/>
  <rect x="29" y="25" width="8" height="1.5" fill="url(#cloudwijk-gradient)"/>
  <rect x="30" y="28" width="6" height="1.5" fill="url(#cloudwijk-gradient)"/>
  
  <!-- Text -->
  <text x="65" y="25" font-family="Inter, sans-serif" font-size="16" font-weight="700" fill="#1e3a8a">
    Cloudwijk
  </text>
  <text x="65" y="42" font-family="Inter, sans-serif" font-size="12" font-weight="400" fill="#6b7280">
    EU Sovereign AI
  </text>
</svg>